<?xml version="1.0" encoding="UTF-8" standalone="no"?>
<!-- Created with Inkscape (http://www.inkscape.org/) -->

<svg
   xmlns:dc="http://purl.org/dc/elements/1.1/"
   xmlns:cc="http://creativecommons.org/ns#"
   xmlns:rdf="http://www.w3.org/1999/02/22-rdf-syntax-ns#"
   xmlns:svg="http://www.w3.org/2000/svg"
   xmlns="http://www.w3.org/2000/svg"
   xmlns:sodipodi="http://sodipodi.sourceforge.net/DTD/sodipodi-0.dtd"
   xmlns:inkscape="http://www.inkscape.org/namespaces/inkscape"
   width="100"
   height="100"
   id="svg2"
   version="1.1"
   inkscape:version="0.48.0 r9654"
   sodipodi:docname="ligth_box_white_king.svg">
  <defs
     id="defs4">
    <inkscape:perspective
       id="perspective20"
       inkscape:persp3d-origin="526.18109 : 125 : 1"
       inkscape:vp_z="1052.3622 : 187.5 : 1"
       inkscape:vp_y="0 : 1000 : 0"
       inkscape:vp_x="0 : 187.5 : 1"
       sodipodi:type="inkscape:persp3d" />
  </defs>
  <sodipodi:namedview
     id="base"
     pagecolor="#ffffff"
     bordercolor="#666666"
     borderopacity="1.0"
     inkscape:pageopacity="0.0"
     inkscape:pageshadow="2"
     inkscape:zoom="2.1813953"
     inkscape:cx="77.142857"
     inkscape:cy="40"
     inkscape:document-units="px"
     inkscape:current-layer="layer1"
     showgrid="false"
     fit-margin-top="0"
     fit-margin-left="0"
     fit-margin-right="0"
     fit-margin-bottom="0"
     inkscape:window-width="1280"
     inkscape:window-height="748"
     inkscape:window-x="0"
     inkscape:window-y="28"
     inkscape:window-maximized="1" />
  <metadata
     id="metadata7">
    <rdf:RDF>
      <cc:Work
         rdf:about="">
        <dc:format>image/svg+xml</dc:format>
        <dc:type
           rdf:resource="http://purl.org/dc/dcmitype/StillImage" />
        <dc:title />
      </cc:Work>
    </rdf:RDF>
  </metadata>
  <g
     inkscape:label="Layer 1"
     inkscape:groupmode="layer"
     id="layer1"
     transform="translate(-186.35628,-183.14877)">
    <rect
       style="color:#000000;fill:#aaaaaa;fill-opacity:1;stroke:none;stroke-width:3.28399061999999997;marker:none;visibility:visible;display:inline;overflow:visible;enable-background:accumulate"
       id="rect2985"
       width="100"
       height="100"
       x="186.35628"
       y="183.14877" />
    <g
       transform="translate(-46.42497,-16.00748)"
       inkscape:label="Layer 1"
       id="layer1-0">
      <g
         transform="matrix(0.85734485,0,0,0.85734485,40.332803,32.681854)"
         id="g3775">
        <path
           inkscape:connector-curvature="0"
           style="font-size:12px;font-style:normal;font-weight:normal;fill:#ffffff;fill-opacity:1;stroke:#000000;stroke-width:1.1023386pt;stroke-linecap:butt;stroke-linejoin:miter;stroke-opacity:1;font-family:Bitstream Vera Sans"
           id="path3771"
           d="m 282.86104,206.52725 c 3.41536,0 5.78722,1.56541 7.11557,4.69628 l 0.71156,2.84623 0,0.42695 c -1.2e-4,0.56924 -0.37961,1.75518 -1.13849,3.5578 -1.32835,3.88986 -1.99247,7.25789 -1.99236,10.10412 -1.1e-4,4.64887 1.04351,11.52727 3.13085,20.63523 5.12311,-10.81569 7.68474,-18.97491 7.68485,-24.47764 l -0.85386,-6.1194 c -1.5e-4,-3.32062 1.47042,-5.69249 4.41167,-7.11561 1.04347,-0.56924 2.18197,-0.85385 3.41546,-0.85385 3.41538,0 5.83467,1.51797 7.2579,4.55396 0.56915,1.13851 0.85377,2.277 0.85388,3.4155 -1.1e-4,2.46673 -0.85399,4.41167 -2.56162,5.83479 -2.56172,2.56161 -3.88998,6.73608 -3.98472,12.52342 -1.1e-4,2.46676 0.23706,6.45148 0.71156,11.9542 6.16673,-6.35659 9.25013,-11.52726 9.25026,-15.51199 l -0.71154,-5.55017 c -1.5e-4,-3.13085 1.42297,-5.45528 4.26934,-6.97325 1.13838,-0.66414 2.32429,-0.99621 3.5578,-0.99621 3.22561,0 5.6449,1.47057 7.25789,4.41167 l 0.85388,2.70394 0,0.85385 c -1.1e-4,3.88988 -2.18224,6.83099 -6.54634,8.82334 -0.18988,4.07961 -1.75531,12.0965 -4.69628,24.0507 -0.18988,0.56926 -0.3322,1.09105 -0.42695,1.56543 -1.2e-4,1.32824 -1.5181,3.60523 -4.55399,6.83096 -4.07972,4.07961 -6.11951,7.2579 -6.1194,9.5349 -1.1e-4,1.04361 1.13838,3.84243 3.41549,8.39639 0.3794,0.85388 0.56912,2.13467 0.56923,3.84243 l 0,0.99618 c -0.095,0.28461 -0.14243,0.61668 -0.14229,0.99617 l 0,0.14232 0.14229,0.1423 c -1.1e-4,3.41549 -9.1555,5.31299 -27.46617,5.69248 -1.23347,0 -2.41941,0 -3.55779,0 l -5.97708,-0.14231 -0.14232,0 c -8.91833,-0.28463 -15.70175,-1.04362 -20.35058,-2.27701 -2.94112,-0.85384 -4.41167,-1.9449 -4.41167,-3.27316 0.0949,-0.0949 0.0949,-0.66411 0,-1.70773 -0.0949,-0.18975 -0.0949,-0.3795 0,-0.56924 0,-2.18212 0.71156,-4.69629 2.13468,-7.54254 1.13849,-2.27697 1.70773,-3.8424 1.70773,-4.69628 0,-1.51801 -0.80643,-3.32062 -2.41929,-5.40785 l -6.9733,-7.96946 c -0.75898,-1.04362 -1.13849,-2.03982 -1.13849,-2.98855 -2.94111,-12.04907 -4.6014,-19.8762 -4.98091,-23.48145 -0.0949,-0.75901 -0.14231,-1.47057 -0.14231,-2.13468 -4.36423,-1.99235 -6.54634,-4.93346 -6.54634,-8.82334 0,-3.13085 1.42311,-5.45528 4.26934,-6.97325 1.23337,-0.66414 2.46676,-0.99621 3.70011,-0.99621 3.32062,0 5.69248,1.518 7.11561,4.554 0.56924,1.04361 0.85385,2.18211 0.85385,3.41546 l -0.71156,5.55017 c 0,4.17448 3.03599,9.34515 9.10796,15.51199 0.47438,-4.17449 0.71155,-8.15921 0.71155,-11.9542 0,-5.21808 -0.61668,-8.68103 -1.85003,-10.38876 -0.47438,-0.66411 -1.18594,-1.42311 -2.13469,-2.27699 -1.70774,-1.13849 -2.56161,-3.03597 -2.56161,-5.69246 0,-3.32062 1.56543,-5.73991 4.6963,-7.2579 1.04362,-0.47439 2.18213,-0.71156 3.41547,-0.71156 3.32061,0 5.69248,1.51797 7.1156,4.55396 0.56912,1.04363 0.85374,2.18213 0.85385,3.4155 l -0.85385,5.97709 0,0.14231 c 0,5.40784 2.56147,13.56707 7.68485,24.47764 1.99223,-8.63358 2.98841,-15.512 2.98852,-20.63523 -1.1e-4,-3.79497 -0.71167,-7.4002 -2.13468,-10.81568 -0.56934,-1.32825 -0.85398,-2.277 -0.85384,-2.84624 -1.4e-4,-3.32062 1.51785,-5.69247 4.55395,-7.11561 1.0435,-0.56923 2.182,-0.85385 3.4155,-0.85385"
           sodipodi:nodetypes="ccccccccccsccccccccsccccccccccccccccccccccsscccccscsccccsccscscccscccccc" />
        <path
           d="m 279.58787,266.44053 6.26172,0 c 1.423,0 3.13073,0.0474 5.12322,0.14229 l 14.08887,0.85388 0.14232,0 c 1.70762,0 2.56147,-0.2372 2.5616,-0.71155 l 0,-0.56926 c -1.3e-4,-2.84623 -6.30926,-4.69629 -18.92748,-5.55015 -2.27711,-0.18976 -4.26946,-0.28463 -5.97708,-0.28463 -9.29783,0 -16.46074,0.94875 -21.48909,2.84625 -2.27699,0.85385 -3.41548,1.85003 -3.41548,2.98853 l 0,0.56926 c 0,0.47435 0.85388,0.71155 2.56161,0.71155 l 19.06979,-0.99617 m 26.32768,6.40402 c -7.49521,-0.94874 -15.18005,-1.42312 -23.05451,-1.42312 -8.25421,0 -15.93894,0.47438 -23.05452,1.42312 1.1385,0.94874 1.70773,2.79879 1.70773,5.55017 0,1.80261 -0.28461,2.89366 -0.85384,3.27317 5.69245,-1.04362 13.09257,-1.56544 22.20063,-1.56544 9.10783,0 16.50804,0.52182 22.20064,1.56544 -0.56937,-0.37951 -0.854,-1.47056 -0.85389,-3.27317 -1.1e-4,-2.75138 0.56915,-4.60143 1.70776,-5.55017 m -23.05451,12.23881 c -4.83872,0 -10.24658,0.23719 -16.22356,0.71157 -4.64884,0.37948 -6.97328,1.47056 -6.97328,3.27317 0,2.37185 7.73228,3.55779 23.19684,3.55779 15.46442,0 23.1967,-1.18594 23.19681,-3.55779 -1.1e-4,-0.759 -0.61679,-1.47056 -1.85006,-2.13469 -3.60534,-1.23336 -10.72093,-1.85005 -21.34675,-1.85005 m 0,-74.42908 c -2.372,0 -3.55793,1.13849 -3.55779,3.41548 -1.4e-4,2.46675 1.18579,3.70012 3.55779,3.70012 2.27686,0 3.41536,-1.23337 3.41547,-3.70012 -1.1e-4,-2.27699 -1.13861,-3.41548 -3.41547,-3.41548 m 0,-4.12703 c 3.41536,0 5.78722,1.56541 7.11557,4.69628 l 0.71156,2.84623 0,0.42695 c -1.2e-4,0.56924 -0.37961,1.75518 -1.13849,3.5578 -1.32835,3.88986 -1.99247,7.25789 -1.99236,10.10412 -1.1e-4,4.64887 1.04351,11.52727 3.13085,20.63523 5.12311,-10.81569 7.68474,-18.97491 7.68485,-24.47764 l -0.85386,-6.1194 c -1.5e-4,-3.32062 1.47042,-5.69249 4.41167,-7.11561 1.04347,-0.56924 2.18197,-0.85385 3.41546,-0.85385 3.41538,0 5.83467,1.51797 7.2579,4.55396 0.56915,1.13851 0.85377,2.277 0.85388,3.4155 -1.1e-4,2.46673 -0.85399,4.41167 -2.56162,5.83479 -2.56172,2.56161 -3.88998,6.73608 -3.98472,12.52342 -1.1e-4,2.46676 0.23706,6.45148 0.71156,11.9542 6.16673,-6.35659 9.25013,-11.52726 9.25026,-15.51199 l -0.71154,-5.55017 c -1.5e-4,-3.13085 1.42297,-5.45528 4.26934,-6.97325 1.13838,-0.66414 2.32429,-0.99621 3.5578,-0.99621 3.22561,0 5.6449,1.47057 7.25789,4.41167 l 0.85388,2.70394 0,0.85385 c -1.1e-4,3.88988 -2.18224,6.83099 -6.54634,8.82334 -0.18988,4.07961 -1.75531,12.0965 -4.69628,24.0507 -0.18988,0.56926 -0.3322,1.09105 -0.42695,1.56543 -1.2e-4,1.32824 -1.5181,3.60523 -4.55399,6.83096 -4.07972,4.07961 -6.11951,7.2579 -6.1194,9.5349 -1.1e-4,1.04361 1.13838,3.84243 3.41549,8.39639 0.3794,0.85388 0.56912,2.13467 0.56923,3.84243 l 0,0.99618 c -0.095,0.28461 -0.14243,0.61668 -0.14229,0.99617 l 0,0.14232 0.14229,0.1423 c -1.1e-4,3.41549 -9.1555,5.31299 -27.46617,5.69248 -1.23347,0 -2.41941,0 -3.55779,0 l -5.97708,-0.14231 -0.14232,0 c -8.91833,-0.28463 -15.70175,-1.04362 -20.35058,-2.27701 -2.94112,-0.85384 -4.41167,-1.9449 -4.41167,-3.27316 0.0949,-0.0949 0.0949,-0.66411 0,-1.70773 -0.0949,-0.18975 -0.0949,-0.3795 0,-0.56924 0,-2.18212 0.71156,-4.69629 2.13468,-7.54254 1.13849,-2.27697 1.70773,-3.8424 1.70773,-4.69628 0,-1.51801 -0.80643,-3.32062 -2.41929,-5.40785 l -6.9733,-7.96946 c -0.75898,-1.04362 -1.13849,-2.03982 -1.13849,-2.98855 -2.94111,-12.04907 -4.6014,-19.8762 -4.98091,-23.48145 -0.0949,-0.75901 -0.14231,-1.47057 -0.14231,-2.13468 -4.36423,-1.99235 -6.54634,-4.93346 -6.54634,-8.82334 0,-3.13085 1.42311,-5.45528 4.26934,-6.97325 1.23337,-0.66414 2.46676,-0.99621 3.70011,-0.99621 3.32062,0 5.69248,1.518 7.11561,4.554 0.56924,1.04361 0.85385,2.18211 0.85385,3.41546 l -0.71156,5.55017 c 0,4.17448 3.03599,9.34515 9.10796,15.51199 0.47438,-4.17449 0.71155,-8.15921 0.71155,-11.9542 0,-5.21808 -0.61668,-8.68103 -1.85003,-10.38876 -0.47438,-0.66411 -1.18594,-1.42311 -2.13469,-2.27699 -1.70774,-1.13849 -2.56161,-3.03597 -2.56161,-5.69246 0,-3.32062 1.56543,-5.73991 4.6963,-7.2579 1.04362,-0.47439 2.18213,-0.71156 3.41547,-0.71156 3.32061,0 5.69248,1.51797 7.1156,4.55396 0.56912,1.04363 0.85374,2.18213 0.85385,3.4155 l -0.85385,5.97709 0,0.14231 c 0,5.40784 2.56147,13.56707 7.68485,24.47764 1.99223,-8.63358 2.98841,-15.512 2.98852,-20.63523 -1.1e-4,-3.79497 -0.71167,-7.4002 -2.13468,-10.81568 -0.56934,-1.32825 -0.85398,-2.277 -0.85384,-2.84624 -1.4e-4,-3.32062 1.51785,-5.69247 4.55395,-7.11561 1.0435,-0.56923 2.182,-0.85385 3.4155,-0.85385 m 41.12811,17.50436 c -1.51812,0 -2.60917,0.759 -3.27317,2.27699 -0.095,0.3795 -0.14245,0.75898 -0.14233,1.13847 -1.2e-4,1.8975 0.85375,3.08344 2.56162,3.55782 0.2845,0.0949 0.56915,0.1423 0.85388,0.1423 2.37173,0 3.55767,-1.23336 3.55779,-3.70012 -1.2e-4,-2.27697 -1.18606,-3.41546 -3.55779,-3.41546 m -18.64286,-9.10797 c -1.61299,0 -2.70404,0.80645 -3.27316,2.41931 l -0.1423,1.13849 c -1.4e-4,1.70773 0.80629,2.84623 2.41929,3.41549 0.2845,0.0949 0.61656,0.1423 0.99617,0.1423 2.46663,0 3.7,-1.18592 3.70011,-3.55779 -1.1e-4,-2.37185 -1.23348,-3.5578 -3.70011,-3.5578 m -45.25515,0 c -2.37185,0 -3.55779,1.18595 -3.55779,3.5578 0,2.37187 1.18594,3.55779 3.55779,3.55779 2.277,0 3.41549,-1.18592 3.41549,-3.55779 0,-2.37185 -1.13849,-3.5578 -3.41549,-3.5578 m -18.64285,9.10797 c -2.37185,0 -3.55779,1.13849 -3.55779,3.41546 0,2.46676 1.18594,3.70012 3.55779,3.70012 2.277,0 3.41549,-1.23336 3.41549,-3.70012 0,-1.61284 -0.80643,-2.70391 -2.41929,-3.27316 -0.28464,-0.0949 -0.61669,-0.1423 -0.9962,-0.1423 m 41.41275,9.10796 c -1.32837,8.34894 -3.03611,14.37347 -5.12323,18.07358 l -2.13466,3.41549 0,0.14233 c -0.28476,-0.28465 -1.51812,-1.70777 -3.70011,-4.26938 -2.7515,-3.22573 -5.64506,-9.34513 -8.68103,-18.35821 0.18974,1.32823 0.28462,2.70392 0.28462,4.12703 0,4.45911 -0.80644,11.33752 -2.41931,20.63522 -5.12321,-3.03599 -10.10412,-7.8746 -14.94274,-14.51582 1.61288,8.15922 2.84626,13.51963 3.70011,16.08124 0.56926,1.89749 1.28082,2.98855 2.13468,3.27317 7.77971,-4.45908 18.07349,-6.68864 30.88167,-6.68864 12.90281,0 23.1967,2.22956 30.88164,6.68864 1.70762,-0.56924 3.60512,-7.0207 5.69249,-19.35441 -4.93359,6.83098 -9.86709,11.6696 -14.80043,14.51582 -1.613,-8.2541 -2.41941,-14.75299 -2.41929,-19.49672 -1.2e-4,-1.23336 0.0947,-2.98855 0.28461,-5.26553 -1.89761,5.69247 -4.07972,10.76824 -6.54633,15.22736 -1.32838,1.99235 -2.79894,3.88985 -4.41168,5.69246 -0.75911,0.759 -1.23349,1.32825 -1.42311,1.70777 l -3.13088,-5.55018 c -0.095,-0.37949 -0.23728,-0.75899 -0.42691,-1.13849 -0.75911,-2.08724 -1.99249,-7.06815 -3.70011,-14.94273"
           id="path1715"
           style="font-size:12px;font-style:normal;font-weight:normal;fill:#ffffff;fill-opacity:1;stroke:#000000;stroke-width:1.1023386pt;stroke-linecap:butt;stroke-linejoin:miter;stroke-opacity:1;font-family:Bitstream Vera Sans"
           inkscape:connector-curvature="0" />
      </g>
    </g>
  </g>
</svg>
