<?xml version="1.0" encoding="UTF-8" standalone="no"?>
<!-- Created with Inkscape (http://www.inkscape.org/) -->

<svg
   xmlns:dc="http://purl.org/dc/elements/1.1/"
   xmlns:cc="http://creativecommons.org/ns#"
   xmlns:rdf="http://www.w3.org/1999/02/22-rdf-syntax-ns#"
   xmlns:svg="http://www.w3.org/2000/svg"
   xmlns="http://www.w3.org/2000/svg"
   xmlns:sodipodi="http://sodipodi.sourceforge.net/DTD/sodipodi-0.dtd"
   xmlns:inkscape="http://www.inkscape.org/namespaces/inkscape"
   width="100"
   height="100"
   id="svg2"
   version="1.1"
   inkscape:version="0.48.0 r9654"
   sodipodi:docname="light_box_black_king_available_white.svg">
  <defs
     id="defs4">
    <inkscape:perspective
       id="perspective20"
       inkscape:persp3d-origin="526.18109 : 125 : 1"
       inkscape:vp_z="1052.3622 : 187.5 : 1"
       inkscape:vp_y="0 : 1000 : 0"
       inkscape:vp_x="0 : 187.5 : 1"
       sodipodi:type="inkscape:persp3d" />
  </defs>
  <sodipodi:namedview
     id="base"
     pagecolor="#ffffff"
     bordercolor="#666666"
     borderopacity="1.0"
     inkscape:pageopacity="0.0"
     inkscape:pageshadow="2"
     inkscape:zoom="2.1813953"
     inkscape:cx="20.527717"
     inkscape:cy="40"
     inkscape:document-units="px"
     inkscape:current-layer="layer1"
     showgrid="false"
     fit-margin-top="0"
     fit-margin-left="0"
     fit-margin-right="0"
     fit-margin-bottom="0"
     inkscape:window-width="1280"
     inkscape:window-height="748"
     inkscape:window-x="0"
     inkscape:window-y="28"
     inkscape:window-maximized="1" />
  <metadata
     id="metadata7">
    <rdf:RDF>
      <cc:Work
         rdf:about="">
        <dc:format>image/svg+xml</dc:format>
        <dc:type
           rdf:resource="http://purl.org/dc/dcmitype/StillImage" />
        <dc:title />
      </cc:Work>
    </rdf:RDF>
  </metadata>
  <g
     inkscape:label="Layer 1"
     inkscape:groupmode="layer"
     id="layer1"
     transform="translate(-186.35628,-183.14877)">
    <rect
       style="color:#000000;fill:#aaaaaa;fill-opacity:1;stroke:none;stroke-width:3.28399061999999997;marker:none;visibility:visible;display:inline;overflow:visible;enable-background:accumulate"
       id="rect2985"
       width="100"
       height="100"
       x="186.35628"
       y="183.14877" />
    <g
       transform="translate(-44.57542,126.69907)"
       inkscape:label="Layer 1"
       id="layer1-0">
      <g
         id="g3756">
        <path
           inkscape:connector-curvature="0"
           style="font-size:12px;font-style:normal;font-weight:normal;fill:#000000;fill-opacity:1;stroke:#ffffff;stroke-width:0.98765433;stroke-opacity:1;font-family:Bitstream Vera Sans"
           id="path3754"
           d="m 307.5953,140.45193 c -1e-4,2.28311 -4.19941,3.87315 -12.59792,4.77011 l -11.8641,0.73383 -2.20159,0 c -9.94798,0 -17.53111,-0.85617 -22.74967,-2.56849 -2.52776,-0.73387 -3.79163,-1.71236 -3.79163,-2.93545 0,-2.36466 0.65233,-5.05549 1.95697,-8.07247 0.89694,-1.79389 1.34542,-3.05777 1.34542,-3.79161 0,-1.54925 -1.87543,-4.56627 -5.62628,-9.05095 -2.03849,-2.36467 -3.22082,-3.99548 -3.54698,-4.89242 0,-0.48924 -0.24462,-1.59003 -0.73387,-3.30237 l -1.59003,-6.11551 c -1.06002,-3.99547 -1.75311,-8.235526 -2.07927,-12.720246 -3.75085,-1.549254 -5.62626,-4.036225 -5.62626,-7.460903 0,-2.935455 1.34539,-5.014719 4.03622,-6.23781 0.89694,-0.407718 1.87543,-0.611571 2.93545,-0.611571 2.69082,0 4.68855,1.223112 5.9932,3.669316 0.57078,1.060006 0.85617,2.120041 0.85617,3.180065 l -0.61155,4.647779 c 0,3.669296 2.60927,8.154003 7.82785,13.45411 0.40768,-3.343139 0.61155,-6.849362 0.61155,-10.518686 0,-5.463171 -0.97848,-8.928625 -2.93544,-10.396339 -0.16308,-0.163095 -0.32617,-0.285386 -0.48924,-0.366929 -1.46773,-0.896947 -2.20158,-2.486971 -2.20158,-4.7701 0,-3.01698 1.38616,-5.096263 4.15852,-6.23782 0.89696,-0.407698 1.83467,-0.611553 2.81314,-0.611553 2.8539,0 4.89241,1.304655 6.11551,3.913918 0.48923,0.896957 0.73375,1.875422 0.73386,2.935455 l -0.85618,5.259332 c 0,4.566255 2.24227,11.537909 6.72708,20.915032 1.71222,-7.664768 2.56842,-13.535642 2.56851,-17.612656 -9e-5,-3.424678 -0.61167,-6.563976 -1.83464,-9.417869 -0.48936,-1.060034 -0.73397,-1.87543 -0.73387,-2.446214 -1e-4,-3.016989 1.34529,-5.096253 4.03622,-6.237831 0.89684,-0.407688 1.83455,-0.611551 2.81314,-0.611551 2.85381,0 4.85151,1.345422 5.99319,4.036257 0.4076,0.896938 0.61146,1.834644 0.61155,2.813125 -9e-5,0.163077 -0.69319,2.323894 -2.07926,6.482442 -0.32627,1.060007 -0.48934,2.853903 -0.48925,5.381641 -9e-5,4.077014 0.85606,9.947888 2.56851,17.612656 4.40307,-9.295583 6.60466,-16.267253 6.60475,-20.915031 l -0.73386,-5.137012 0,-0.12232 c -1.1e-4,-3.01698 1.38609,-5.096263 4.15855,-6.237821 0.89683,-0.407698 1.83455,-0.611552 2.81313,-0.611552 2.8538,0 4.89229,1.304655 6.1155,3.913918 0.48915,0.896957 0.73376,1.875422 0.73386,2.935455 -1e-4,2.283128 -0.73397,3.913928 -2.20158,4.89239 -2.28323,1.467743 -3.42477,5.055497 -3.42468,10.763298 -9e-5,3.587774 0.20374,7.053227 0.61155,10.396365 5.21845,-5.300107 7.82774,-9.784814 7.82785,-13.454109 l -0.61155,-4.647779 c -1.1e-4,-2.853911 1.30454,-4.892419 3.91393,-6.115521 0.89684,-0.48923 1.87531,-0.733861 2.93544,-0.733861 2.93535,0 5.01461,1.304635 6.23781,3.913927 l 0.73386,2.323905 0,0.61155 c -9e-5,3.261581 -1.87553,5.748552 -5.62626,7.460903 -0.48935,5.62627 -1.87552,12.516415 -4.15855,20.670395 -0.16317,0.65234 -0.24472,1.14156 -0.24462,1.46773 -1e-4,0.57078 -0.61166,1.5085 -1.83465,2.81314 l -1.46772,1.83464 c -3.91403,4.48471 -5.87099,7.58324 -5.8709,9.29559 -9e-5,0.48923 0.97839,3.01698 2.93546,7.58322 0.32607,1.6308 0.48913,3.05776 0.48923,4.28086"
           sodipodi:nodetypes="cccscscscccccscsccccsccscsccccccccscccccccccsccccccccsccccccccccc" />
        <path
           d="m 260.75052,133.1133 c 0,1.30465 0.93772,1.95697 2.81315,1.95697 l 8.43939,-0.61155 c -1e-4,0 2.4461,-0.12231 7.33861,-0.36694 l 1.83466,0 14.31028,0.73388 2.93544,0.24461 c 1.8753,0 2.81304,-0.65232 2.81314,-1.95697 -10e-5,-2.36465 -5.4633,-3.66929 -16.38958,-3.91391 l -3.7916,0 c -9.21414,0 -15.37031,0.69311 -18.46883,2.07927 -1.22309,0.48924 -1.83466,1.1008 -1.83466,1.83464 M 245.46176,81.987676 c -1.54927,0 -2.52774,0.774648 -2.93545,2.323905 -0.0816,0.24462 -0.12232,0.489231 -0.12232,0.73387 0,1.549257 0.77466,2.527738 2.32391,2.935426 0.24461,0.08155 0.48923,0.12232 0.73386,0.12232 1.95696,0 2.93544,-1.019258 2.93544,-3.057746 0,-2.038516 -0.97848,-3.057775 -2.93544,-3.057775 m 16.02262,-7.705534 c -2.12004,0 -3.18004,1.019259 -3.18004,3.057756 0,2.038516 1.06,3.057756 3.18004,3.057756 1.95697,0 2.93545,-1.01924 2.93545,-3.057756 0,-2.038497 -0.97848,-3.057756 -2.93545,-3.057756 m 39.01694,0 c -1.38628,0 -2.324,0.693104 -2.81313,2.079274 l -0.12232,0.978482 c -9e-5,2.038516 0.97838,3.057756 2.93545,3.057756 2.03839,0 3.05765,-1.01924 3.05774,-3.057756 -9e-5,-2.038497 -1.01935,-3.057756 -3.05774,-3.057756 m 15.90032,7.705534 c -1.95707,0 -2.93554,1.019259 -2.93544,3.057775 -1e-4,2.038488 0.97837,3.057746 2.93544,3.057746 2.0384,0 3.05763,-1.019258 3.05776,-3.057746 -1.3e-4,-1.549256 -0.77474,-2.527748 -2.3239,-2.935455 -0.24471,-0.08154 -0.48934,-0.12232 -0.73386,-0.12232 m -8.80634,58.464254 c -1e-4,2.28311 -4.19941,3.87315 -12.59792,4.77011 l -11.8641,0.73383 -2.20159,0 c -9.94798,0 -17.53111,-0.85617 -22.74967,-2.56849 -2.52776,-0.73387 -3.79163,-1.71236 -3.79163,-2.93545 0,-2.36466 0.65233,-5.05549 1.95697,-8.07247 0.89694,-1.79389 1.34542,-3.05777 1.34542,-3.79161 0,-1.54925 -1.87543,-4.56627 -5.62628,-9.05095 -2.03849,-2.36467 -3.22082,-3.99548 -3.54698,-4.89242 0,-0.48924 -0.24462,-1.59003 -0.73387,-3.30237 l -1.59003,-6.11551 c -1.06002,-3.99547 -1.75311,-8.235526 -2.07927,-12.720246 -3.75085,-1.549254 -5.62626,-4.036225 -5.62626,-7.460903 0,-2.935455 1.34539,-5.014719 4.03622,-6.23781 0.89694,-0.407718 1.87543,-0.611571 2.93545,-0.611571 2.69082,0 4.68855,1.223112 5.9932,3.669316 0.57078,1.060006 0.85617,2.120041 0.85617,3.180065 l -0.61155,4.647779 c 0,3.669296 2.60927,8.154003 7.82785,13.45411 0.40768,-3.343139 0.61155,-6.849362 0.61155,-10.518686 0,-5.463171 -0.97848,-8.928625 -2.93544,-10.396339 -0.16308,-0.163095 -0.32617,-0.285386 -0.48924,-0.366929 -1.46773,-0.896947 -2.20158,-2.486971 -2.20158,-4.7701 0,-3.01698 1.38616,-5.096263 4.15852,-6.23782 0.89696,-0.407698 1.83467,-0.611553 2.81314,-0.611553 2.8539,0 4.89241,1.304655 6.11551,3.913918 0.48923,0.896957 0.73375,1.875422 0.73386,2.935455 l -0.85618,5.259332 c 0,4.566255 2.24227,11.537909 6.72708,20.915032 1.71222,-7.664768 2.56842,-13.535642 2.56851,-17.612656 -9e-5,-3.424678 -0.61167,-6.563976 -1.83464,-9.417869 -0.48936,-1.060034 -0.73397,-1.87543 -0.73387,-2.446214 -1e-4,-3.016989 1.34529,-5.096253 4.03622,-6.237831 0.89684,-0.407688 1.83455,-0.611551 2.81314,-0.611551 2.85381,0 4.85151,1.345422 5.99319,4.036257 0.4076,0.896938 0.61146,1.834644 0.61155,2.813125 -9e-5,0.163077 -0.69319,2.323894 -2.07926,6.482442 -0.32627,1.060007 -0.48934,2.853903 -0.48925,5.381641 -9e-5,4.077014 0.85606,9.947888 2.56851,17.612656 4.40307,-9.295583 6.60466,-16.267253 6.60475,-20.915031 l -0.73386,-5.137012 0,-0.12232 c -1.1e-4,-3.01698 1.38609,-5.096263 4.15855,-6.237821 0.89683,-0.407698 1.83455,-0.611552 2.81313,-0.611552 2.8538,0 4.89229,1.304655 6.1155,3.913918 0.48915,0.896957 0.73376,1.875422 0.73386,2.935455 -1e-4,2.283128 -0.73397,3.913928 -2.20158,4.89239 -2.28323,1.467743 -3.42477,5.055497 -3.42468,10.763298 -9e-5,3.587774 0.20374,7.053227 0.61155,10.396365 5.21845,-5.300107 7.82774,-9.784814 7.82785,-13.454109 l -0.61155,-4.647779 c -1.1e-4,-2.853911 1.30454,-4.892419 3.91393,-6.115521 0.89684,-0.48923 1.87531,-0.733861 2.93544,-0.733861 2.93535,0 5.01461,1.304635 6.23781,3.913927 l 0.73386,2.323905 0,0.61155 c -9e-5,3.261581 -1.87553,5.748552 -5.62626,7.460903 -0.48935,5.62627 -1.87552,12.516415 -4.15855,20.670395 -0.16317,0.65234 -0.24472,1.14156 -0.24462,1.46773 -1e-4,0.57078 -0.61166,1.5085 -1.83465,2.81314 l -1.46772,1.83464 c -3.91403,4.48471 -5.87099,7.58324 -5.8709,9.29559 -9e-5,0.48923 0.97839,3.01698 2.93546,7.58322 0.32607,1.6308 0.48913,3.05776 0.48923,4.28086 M 281.05401,70.490534 c -1.54936,0 -2.52785,0.774638 -2.93546,2.323895 -0.0817,0.244619 -0.12239,0.489232 -0.12229,0.733851 -1e-4,1.549266 0.77452,2.527749 2.32388,2.935456 0.24452,0.08154 0.48916,0.12232 0.73387,0.12232 1.95687,0 2.93533,-1.01926 2.93545,-3.057776 -1.2e-4,-1.467714 -0.69319,-2.446204 -2.07928,-2.935436 -0.24472,-0.08153 -0.53011,-0.12231 -0.85617,-0.12231 m 22.01582,47.700956 c -1e-4,-2.6093 -7.33871,-3.91395 -22.01582,-3.91395 -14.75876,0 -22.13814,1.34542 -22.13814,4.03626 0,1.14155 1.06001,1.71233 3.18005,1.71233 2.44623,0 5.50397,-0.20384 9.17329,-0.61155 l 7.95015,-0.24461 1.95697,0 c 2.283,0 6.60462,0.20384 12.96486,0.61155 l 5.9932,0.24461 c 1.95686,0 2.93534,-0.61155 2.93544,-1.83464"
           id="path1742"
           style="font-size:12px;font-style:normal;font-weight:normal;fill:#000000;fill-opacity:1;stroke:#ffffff;stroke-width:0.98765433;stroke-opacity:1;font-family:Bitstream Vera Sans"
           inkscape:connector-curvature="0" />
      </g>
    </g>
    <rect
       style="color:#000000;fill:none;stroke:#ffffff;stroke-width:3.19217968;stroke-linecap:round;stroke-linejoin:round;stroke-miterlimit:4;stroke-opacity:1;stroke-dasharray:none;stroke-dashoffset:92.38840103;marker:none;visibility:visible;display:inline;overflow:visible;enable-background:accumulate"
       id="rect2986"
       width="96.807823"
       height="96.807823"
       x="187.95238"
       y="184.74486"
       ry="4.4581633" />
  </g>
</svg>
